<?xml version="1.0" encoding="UTF-8"?>
<svg width="23px" height="23px" viewBox="0 0 23 23" version="1.1" xmlns="http://www.w3.org/2000/svg" xmlns:xlink="http://www.w3.org/1999/xlink">
    <title>iPhone 8</title>
    <g id="Page-1" stroke="none" stroke-width="1" fill="none" fill-rule="evenodd">
        <g id="iPhone-8" transform="translate(-273.000000, -449.000000)" fill="#000000" fill-rule="nonzero">
            <g id="ico_superhero" transform="translate(267.000000, 449.000000)">
                <path d="M28.3278293,0.173734454 C27.6925826,-0.191723863 26.8877912,0.038205156 26.5302679,0.686862701 L25,3.46236368 C25.9015701,4.39521146 26.2981445,5.72324976 26.0783914,7 L28.8299143,2.00994564 C29.1876802,1.36128815 28.9625909,0.539192771 28.3278293,0.173734454 Z" id="Path"></path>
                <path d="M22.8062125,14.9887042 L19.4108453,14.8748815 L19.7788754,12.2488126 L19.8844485,14.0937363 L21.0210053,14.1317526 L21.8848885,12.6762701 C22.3446423,11.901461 22.1877584,10.934081 21.561131,10.3384918 L22.5417121,9.67976822 C22.2710817,9.74244996 21.9918239,9.77548793 21.7087063,9.77548793 C20.907713,9.77548793 20.1087629,9.51299419 19.4449011,9 C19.0232898,9.51684107 7.06651164,24.1712331 6.46417738,24.9096099 C5.97104876,25.5140244 5.15597903,25.7452904 4.41605915,25.4884539 L2.41175948,27.5415622 C1.85188151,28.1149753 1.86459569,29.031893 2.4399123,29.5896923 C3.01500196,30.1472652 3.93496364,30.135272 4.49484167,29.5616326 L10.3276988,23.5865056 C10.3939942,23.5188456 10.4534784,23.4446233 10.5050162,23.3654226 C13.5280396,18.7247142 13.332559,19.0288449 13.3702475,18.9652581 L14.195307,19.4515503 L14.8943598,23.8008001 L11.2133777,26.8459538 C10.5958318,27.3566852 10.5106922,28.2699824 11.0233461,28.8854849 C11.5373622,29.5030241 12.4539184,29.5842614 13.069648,29.0748877 L17.3886095,25.5020311 C17.7841113,25.1750454 17.9768674,24.6640877 17.8953604,24.1583347 L17.2932532,20.4130468 L18.6598005,18.1105694 C18.5535463,18.1069488 17.6626455,18.0770788 17.5625213,18.0736845 C16.3989468,18.034763 15.6018131,16.8892947 15.9827845,15.7789009 L17.2240063,12.681701 L16.7744692,15.8891029 C16.6732099,16.6120922 17.2226441,17.2651585 17.9562069,17.2898239 L22.7231162,17.4498093 C22.7371926,17.4502619 22.7512691,17.4504882 22.7653454,17.4504882 C23.4282991,17.4504882 23.9768252,16.9261795 23.999302,16.2608937 C24.0220059,15.5811254 23.4880104,15.0115592 22.8062125,14.9887042 L22.8062125,14.9887042 Z" id="Path"></path>
                <path d="M6.22893693,24.6393241 L19,8.78948088 L18.1210847,8.26484125 C17.5168304,7.90402368 16.760612,7.91129456 16.1615357,8.29028934 L0.454075942,18.2277686 C-0.0583244942,18.5520045 -0.154230698,19.2659144 0.254383842,19.7160275 L4.76355275,24.6829494 C5.16271177,25.1226106 5.85589322,25.1021612 6.22893693,24.6393241 Z" id="Path"></path>
                <path d="M24.2817512,3.41862171 C22.6076379,2.56988318 20.4657203,3.05660286 19.4880967,4.47301984 C18.5039877,5.89886189 19.054976,7.73819815 20.7183741,8.58137829 C22.3924874,9.43011682 24.534405,8.94339714 25.5120286,7.52698016 C26.4958556,6.10113811 25.9451494,4.26180191 24.2817512,3.41862171 L24.2817512,3.41862171 Z" id="Path"></path>
            </g>
        </g>
    </g>
</svg>