<?xml version="1.0" encoding="UTF-8"?>
<svg width="23px" height="23px" viewBox="0 0 23 23" version="1.1" xmlns="http://www.w3.org/2000/svg" xmlns:xlink="http://www.w3.org/1999/xlink">
    <title>iPhone 8</title>
    <g id="Page-1" stroke="none" stroke-width="1" fill="none" fill-rule="evenodd">
        <g id="iPhone-8" transform="translate(-273.000000, -449.000000)" fill="#000000" fill-rule="nonzero">
            <g id="ico_villains" transform="translate(274.000000, 450.000000)">
                <path d="M6.5653081,21.2592119 L4.4697787,19 L2,21.23456 L4.06253678,23.4584159 C4.68739648,24.1321249 5.75349033,24.1836992 6.44400192,23.577134 C7.13484684,22.9695958 7.18950124,21.9319477 6.5653081,21.2592119 Z" id="Path"></path>
                <path d="M13.4278346,21.2113844 C12.7924637,21.9165069 12.8742338,22.981692 13.6101645,23.590131 C14.3492269,24.2012373 15.460604,24.1175561 16.0931913,23.4154341 L18,21.2983995 L15.419545,19 L13.4278346,21.2113844 Z" id="Path"></path>
                <path d="M19.8788905,16.9605872 L17.6350124,11.518537 C17.0042972,9.98859058 15.5138996,9 13.8387044,9 C13.8296108,9 7.05478106,9.00064024 6.16132205,9 C4.342251,9 2.74142958,10.1653076 2.22211256,11.9238335 C1.65602787,13.2834657 0.741133504,15.4825034 0.175373564,16.8424558 C-0.131215083,17.4439978 -0.0279363223,18.1627108 0.423502511,18.6557255 L1.7528111,20.1072378 L4.16005162,17.901477 L3.55336985,17.2391086 C3.7131597,16.8510996 5.14964445,13.3676624 5.40914058,12.7382682 C5.41206354,12.7315453 5.41466175,12.7248224 5.41758472,12.7184196 C5.470848,12.5993277 5.65207311,12.6383847 5.65207311,12.7683613 L5.65207311,17.9459764 L7.63385689,20.110119 C8.62994523,21.1976327 8.60266404,22.8873287 7.52310825,23.8944873 C6.99794531,24.3846208 6.322411,24.6295274 5.65304746,24.6295274 L5.65304746,40.0125476 C5.65304746,41.1023022 6.5575489,42.0204621 7.66276194,41.9996531 C8.73419834,41.9794843 9.59647893,41.1173488 9.59647893,40.0564067 L9.59647893,24.5213204 L10.4477171,24.5213204 L10.4477171,40.0125476 C10.4477171,41.1023022 11.3522185,42.0204621 12.4574317,41.9996531 C13.5288681,41.9794843 14.3911487,41.1173488 14.3911487,40.0564067 L14.3911487,24.6260059 C13.769852,24.5965531 13.1544012,24.3558083 12.6665875,23.9069728 C11.5922281,22.9183822 11.5396144,21.2523765 12.4999773,20.155899 L14.3554232,18.0365759 L14.3554232,12.7850086 C14.3554232,12.6553521 14.5392466,12.6146944 14.589262,12.7344265 C14.5899116,12.7357071 14.5905611,12.7369876 14.590886,12.7382682 C15.2420621,14.3171959 15.8039247,15.6797093 16.4563999,17.2624787 L15.7928823,18.0202488 L18.201422,20.2272901 L19.6008822,18.6288338 C20.0039293,18.1681532 20.1114302,17.5240326 19.8788905,16.9605872 Z" id="Path"></path>
                <path d="M9.71218332,6.07764702 L7,5.0278991 C7.26648973,6.71193276 8.73100119,8 10.4978045,8 C12.2747406,8 13.7456694,6.69747896 14,5 L11.2884922,6.07226887 C10.788275,6.26991593 10.2255729,6.27663862 9.71218332,6.07764702 Z" id="Path"></path>
                <path d="M6.44048193,4.35219613 L6.45557535,4.35833171 L10.078924,5.91336925 C10.3493737,6.02994589 10.6500102,6.02892335 10.920152,5.90996053 C10.920152,5.90996053 13.2423848,4.88463111 14.5598262,4.35219613 C14.8241153,4.24516379 15,3.96701591 15,3.65546298 L15,2.44333818 C15,2.33630583 14.8820248,2.28381219 14.8151824,2.36118914 C14.4612568,2.76988928 14.0731398,3.21812997 13.7299952,3.61489973 L13.7299952,0.960905481 C13.7299952,0.752976267 13.6070915,0.569248755 13.4275104,0.507210828 C12.4516736,0.169070276 11.4758368,0 10.5,0 C9.52416315,0 8.54863443,0.169070276 7.57279762,0.507210828 C7.39321652,0.569248755 7.27031282,0.752976267 7.27031282,0.960905481 L7.27031282,3.61489973 C6.93856528,3.23142382 6.50177978,2.72693993 6.18481758,2.36118914 C6.11797524,2.28415304 6,2.33630583 6,2.44367903 L6,3.65546298 C6,3.96701591 6.17588475,4.24516379 6.44048193,4.35219613 Z M11.8913683,3.56513312 L12.8077555,3.17040852 C12.8077555,3.75363282 12.4840167,4.27720529 11.993018,4.48854313 L11.0763228,4.88326773 C11.0763228,4.30004343 11.4000616,3.77647096 11.8913683,3.56513312 Z M9.0054419,3.56513312 C9.49644055,3.77647096 9.82017936,4.30004343 9.82017936,4.88326773 L8.90379219,4.48854313 C8.41248544,4.27720529 8.08874671,3.75363282 8.08874671,3.17040852 L9.0054419,3.56513312 Z" id="Shape"></path>
            </g>
        </g>
    </g>
</svg>